# xmcd
# 
# Track frame offsets:
#     150
#     827
#     12692
#     24705
#     47975
#     59267
#     91157
#     103065
#     128712
#     137682
#     138780
#     148770
#     159037
#     160032
#     182820
#     205365
#     215125
#     226292
#     227040
#     241277
#     274930
#     292225
#     306097
#     307472
# 
# Disc length: 4378
# 
# Revision: 1
# Processed by: cddbd v1.5.2PL0 Copyright (c) Steve Scherf et al.
# Submitted via: fre:ac v1.0.31
# 
DISCID=5f111818
DTITLE=Various Artist - Routine Jazz #03 Selected by Kei Kobayashi
DYEAR=2003
DGENRE=Jazz
TTITLE0=KEI KOBAYASHI - Routine Jazz Intro
TTITLE1=Paulo Moura Hepteto - Fibra
TTITLE2=Breno Sauer Quarteto - Sambossa
TTITLE3=Nicola Conte Apresenta Rosalia De Souza - Maria Moita
TTITLE4=Quintetto X - Meu Desespero
TTITLE5=Jessica Lauren - Just A Dream
TTITLE6=Carlos Lee - Amando Estou
TTITLE7=Marcos Valle - On Line
TTITLE8=Ed Motta - Cervejamento Total
TTITLE9=KEI KOBAYASHI - Routine Jazz Interlude 1
TTITLE10=Bebeto - P'ra Nao Chorar
TTITLE11=Jorge Autuori Trio - Palmas No Portao
TTITLE12=KEI KOBAYASHI - Routine Jazz Interlude 2
TTITLE13=LTJ X-Perience Featuring Jackson Sloan - Sombre Guitar
TTITLE14=Grupo Batuque - Umbabaraumba-Ponta De Lanca Africana
TTITLE15=Miguel Angel - Deixa Isso Pra La
TTITLE16=Raulzinho-Impacto 8 - / Spinning Wheel (Vida Torta)
TTITLE17=KEI KOBAYASHI - Routine Jazz Interlude 3
TTITLE18=Copa 7 - O Circo
TTITLE19=Flytronix - Zigzag
TTITLE20=Ana Mozzotti - Feel Like Making Love
TTITLE21=Salvador Trio - Tristeza
TTITLE22=KEI KOBAYASHI - Routine Jazz Ending
TTITLE23=DJ Rodriguez-Featuring Bruna Loppez - Bota Pra Quebar
EXTD=YEAR: 2003
EXTT0=
EXTT1=
EXTT2=
EXTT3=
EXTT4=
EXTT5=
EXTT6=
EXTT7=
EXTT8=
EXTT9=
EXTT10=
EXTT11=
EXTT12=
EXTT13=
EXTT14=
EXTT15=
EXTT16=
EXTT17=
EXTT18=
EXTT19=
EXTT20=
EXTT21=
EXTT22=
EXTT23=
PLAYORDER=
